<svg width="39" height="39" viewBox="0 0 39 39" fill="none" xmlns="http://www.w3.org/2000/svg">
<g clip-path="url(#clip0_1:164)">
<path d="M19.4724 1.81244V36.4535" stroke="#6366F1" stroke-width="2" stroke-linecap="round" stroke-linejoin="round"/>
<path d="M27.3453 8.11081H15.5359C14.0743 8.11081 12.6725 8.69144 11.639 9.72497C10.6055 10.7585 10.0248 12.1603 10.0248 13.6219C10.0248 15.0835 10.6055 16.4853 11.639 17.5188C12.6725 18.5523 14.0743 19.133 15.5359 19.133H23.4089C24.8705 19.133 26.2723 19.7136 27.3058 20.7471C28.3393 21.7806 28.9199 23.1824 28.9199 24.644C28.9199 26.1057 28.3393 27.5074 27.3058 28.541C26.2723 29.5745 24.8705 30.1551 23.4089 30.1551H10.0248" stroke="#6366F1" stroke-width="2" stroke-linecap="round" stroke-linejoin="round"/>
</g>
<defs>
<clipPath id="clip0_1:164">
<rect width="37.7902" height="37.7902" fill="white" transform="translate(0.577263 0.237854)"/>
</clipPath>
</defs>
</svg>
