<svg width="35" height="36" viewBox="0 0 35 36" fill="none" xmlns="http://www.w3.org/2000/svg">
<path d="M24.7917 3.2384H10.2083C6.18126 3.2384 2.91667 6.50299 2.91667 10.5301V25.1134C2.91667 29.1405 6.18126 32.4051 10.2083 32.4051H24.7917C28.8187 32.4051 32.0833 29.1405 32.0833 25.1134V10.5301C32.0833 6.50299 28.8187 3.2384 24.7917 3.2384Z" stroke="#6B7280" stroke-width="3" stroke-linecap="round" stroke-linejoin="round"/>
<path d="M23.3333 16.9029C23.5133 18.1165 23.306 19.3561 22.7409 20.4452C22.1758 21.5343 21.2817 22.4174 20.1857 22.969C19.0897 23.5207 17.8477 23.7127 16.6364 23.5178C15.425 23.3228 14.3059 22.7509 13.4383 21.8833C12.5707 21.0157 11.9988 19.8966 11.8039 18.6853C11.6089 17.4739 11.8009 16.2319 12.3526 15.1359C12.9042 14.0399 13.7874 13.1458 14.8764 12.5807C15.9655 12.0156 17.2051 11.8083 18.4188 11.9883C19.6568 12.1719 20.8029 12.7487 21.6879 13.6337C22.5729 14.5187 23.1498 15.6648 23.3333 16.9029Z" stroke="#6B7280" stroke-width="3" stroke-linecap="round" stroke-linejoin="round"/>
<path d="M25.5208 9.8009H25.5354" stroke="#6B7280" stroke-width="3" stroke-linecap="round" stroke-linejoin="round"/>
</svg>
