<svg width="35" height="30" viewBox="0 0 35 30" fill="none" xmlns="http://www.w3.org/2000/svg">
<path d="M33.5417 1.69667C32.1451 2.68174 30.5989 3.43516 28.9625 3.92792C28.0842 2.91804 26.9169 2.20226 25.6186 1.8774C24.3202 1.55253 22.9534 1.63425 21.703 2.1115C20.4526 2.58875 19.379 3.43851 18.6273 4.54584C17.8755 5.65318 17.4821 6.96466 17.5 8.30292V9.76125C14.9372 9.82771 12.3977 9.25931 10.1077 8.1067C7.81775 6.95408 5.84837 5.25301 4.37499 3.155C4.37499 3.155 -1.45834 16.28 11.6667 22.1133C8.66326 24.152 5.08543 25.1743 1.45833 25.03C14.5833 32.3217 30.625 25.03 30.625 8.25917C30.6237 7.85296 30.5846 7.44775 30.5083 7.04875C31.9967 5.58093 33.047 3.72771 33.5417 1.69667V1.69667Z" stroke="#6B7280" stroke-width="3" stroke-linecap="round" stroke-linejoin="round"/>
</svg>
